<svg xmlns="http://www.w3.org/2000/svg" height="60" width="60" viewBox="0 0 744.09447 1052.3622"><path d="M240.305 830.615c-10.02-12.405-40.8 6.653-46.71-9.368-7.298-19.783 24.05-20.51 31.106-20.267-32.66-40.304-68.412-51.465-75.002-97.987-10.563-74.58 40.35-132.85 67.87-157.164 1.926-1.815-.41-4.743-2.537-3.162-37.114 27.582-67.576 74.586-73.4 128.106-.917 8.42-7.886 12.055-10.186 12.677-4.265 1.154-4.309-5.776-4.433-9.168-1.722-47.005-1.645-73.947 3.838-99.906 7.767-42.932 37.514-75.554 62.551-104.344 13.932-21.465 18.02-70.936 26.012-106.244 25.66-113.37 80.572-125.75 138.576-140.511a142.65 142.65 0 0 1 6.062-2.357c9.984-3.62 20.164-5.988 30.494-6.676 3.259 3.427-9.218 4.48-8.23 10.535 23.357 5.636 32.098 4.82 64.598 30.385 33.998 26.743 60.108 79.896 64.85 158.536 3.16 52.394 22.34 59.01 30.723 67.835 19.167 20.18 41.135 31.144 57.33 68.657 14.832 34.354 14.609 64.728 14.09 113.62-1.341 23.757-15.896 35.445-17.216 18.378-.045-76.311-25.282-100.731-65.93-139.173-3.338-2.647-4.01-.05-2.67 3.054 22.078 18.343 43.763 43.504 55.873 75.396 13.8 36.343 13.6 69.893-16.53 118.547-14.065 22.712-32.947 44.18-41.51 53.908-2.676 5.827 4.842 7.53 22.633 8.373 20.786.984 28.069 4.587 23.844 15.67-3.444 4.006-3.82 4.091-20.92 4.782-13.442.542-18.5 1.086-21.71 2.492-6.548 2.868-1.65 11.98-9.563 12.534-24.777 1.734-22.76-3.362-38.67-8.586-12.793-4.2-27.714-5.439-36.781-.977-28.767 14.154-30.316 3.567-28.617-10.082 1.101-8.85-24.239-11.916-35.276-11.27-10.858.634-41.88 3.488-37.153 14.606 7.123 16.759-18.749 11.681-22.595 9.685-17.819-9.245-40.462-10.73-55.396.667-11.68 8.912-23.17 6.53-29.415-1.201zm144.328-38.424c27.658 2.72 49.777 14.795 75.644 10.258 26.168-6.758 27.246-16.623 48.802-12.564 20.844 4.037 18.855-22.515 32.844-37.644 31.35-50.608 43.59-90.218 10.947-148.902-22.938-41.234-59.125-52.273-91.814-71.373-20.08-11.733-12.277-15.779 7.74-27.552 28.861-16.973 31.862-32.502 21.607-54.688-7.754-16.775-19.481-23.596-19.929-38.602-2.313-77.52-19.507-124.594-59.436-121.345-43.007 3.5-42.895 80.941-42.705 101.588 11.92 3.52 38.866 25.384 39.838 34.467-.03 5.797-.846 6.583-13.332 12.85-6.185 3.103-12.428 6.954-13.875 8.557-3.636 4.03-11.306 6.299-17.417 5.152-2.807-.526-9.755-3.51-15.439-6.629-5.684-3.12-12.899-6.248-16.033-6.952-8.795-1.976-15.247-7.565-15.247-13.206 0-3.837 1.283-5.78 7.38-11.172 10.107-8.374 25.364-16.198 36.556-22.918-2.322-46.38-15.274-88.86-49.8-91.745-17.408-1.454-59.945 2.3-59.69 107.379.082 34.618-19.598 40.067-21.105 58.402-2.639 32.109 14.553 49.095 33.661 54.45 8.37 2.332 7.982 8.855 3.146 13.627-31.409 30.998-67.115 41.99-87.702 111.992-18.807 60.779-.347 85.108 32.796 110.117 46.646 35.199 18.45 39.426 38.695 41.73 4.282.487 18.644-2.356 25.602-.423 12.07 3.354 10.06 7.917 38.536 9.764 27.675 1.794 52.443-16.317 69.73-14.618zm-78.987-387.88c-8.568-7.719-10.317-30.077-3.11-39.775 3.125-4.207 11.56-3.699 13.388-.433-7.787 5.909-4.488 27.154 5.018 4.232 4.7 10.898 3.402 26.831-.286 33.433-4.137 7.278-8.863 8.079-15.01 2.542zm97.67-11.331c-3.76-8.531-3.209-23.31-1.116-29.928 2.138-6.765 4.071-9.739 10.287-11.183 3.842-.892 6.778 2.008 6.778 2.008-5.635 6.936-9.438 24.803 5.93 3.414 3.149 2.987 3.896 20.057-3.68 35.173-7.577 15.116-14.44 9.046-18.2.516zm-29.667 44.715c15.325-10.358 23.255-10.768 11.38-22.927-15.737-14.046-19.12-17.3-35.002-6.99-11.85 7.692-17.737 9.983-17.737 15.022 3.597 9.335 12.849 7.603 21.413 12.91 11.335 7.156 13.205 7.342 19.946 1.985z" style="opacity:1;fill:#333"/></svg>